<?xml version="1.0" standalone="no"?><!DOCTYPE svg PUBLIC "-//W3C//DTD SVG 1.1//EN" "http://www.w3.org/Graphics/SVG/1.1/DTD/svg11.dtd"><svg t="1717481937493" class="icon" viewBox="0 0 1560 1024" version="1.1" xmlns="http://www.w3.org/2000/svg" p-id="14434" xmlns:xlink="http://www.w3.org/1999/xlink" width="304.6875" height="200"><path d="M141.409524 0h1275.123809C1496.990476 0 1560.380952 63.390476 1560.380952 138.971429v746.057142c0 78.019048-63.390476 138.971429-141.409523 138.971429H141.409524C63.390476 1024 0 960.609524 0 885.028571V138.971429C0 63.390476 63.390476 0 141.409524 0z" fill="#00785E" p-id="14435"></path><path d="M802.133333 251.12381l36.571429-26.819048h-43.885714L780.190476 182.857143l-14.628571 41.447619h-43.885715l36.571429 26.819048-14.628571 41.447619 36.571428-24.380953 36.571429 24.380953zM555.885714 402.285714l26.819048-14.628571-29.257143-2.438095-7.314286-31.695238-12.190476 29.257142-31.695238-4.87619 24.380952 21.942857-14.628571 26.819048 26.819048-14.628572 24.380952 21.942857zM638.780952 304.761905h29.257143l-24.380952-17.066667 9.752381-29.257143-24.380953 17.066667-24.380952-19.504762 9.752381 29.257143-26.819048 19.504762h31.695238l9.752381 29.257143z" fill="#FBD116" p-id="14436"></path><path d="M602.209524 789.942857c9.752381 7.314286 21.942857 12.190476 34.133333 19.504762h287.695238c12.190476-4.87619 21.942857-12.190476 34.133334-19.504762H602.209524zM533.942857 731.428571c2.438095 2.438095 4.87619 7.314286 9.752381 9.752381h472.990476c2.438095-2.438095 4.87619-7.314286 9.752381-9.752381H533.942857zM563.2 760.685714c4.87619 4.87619 12.190476 9.752381 17.066667 14.628572h399.847619c7.314286-4.87619 12.190476-9.752381 17.066666-14.628572H563.2zM658.285714 816.761905c39.009524 14.628571 80.457143 24.380952 121.904762 24.380952s85.333333-7.314286 121.904762-24.380952H658.285714zM904.533333 665.6c-12.190476 0-21.942857 0-34.133333-2.438095h14.628571c80.457143 0 148.72381-51.2 175.542858-121.904762-26.819048-9.752381-53.638095-17.066667-85.333334-17.066667-53.638095 0-102.4 19.504762-141.409524 51.2 39.009524-41.447619 97.52381-68.266667 158.476191-68.266666 4.87619-7.314286 9.752381-14.628571 14.628571-19.504762h-9.752381c-63.390476 0-119.466667 26.819048-160.914285 68.266666 21.942857-31.695238 36.571429-70.704762 36.571428-112.152381 0-34.133333-9.752381-65.828571-24.380952-92.647619-2.438095 12.190476-9.752381 21.942857-17.066667 29.257143 12.190476 24.380952 17.066667 51.2 17.066667 80.457143 0 43.885714-14.628571 82.895238-39.009524 114.590476 19.504762-29.257143 31.695238-65.828571 31.695238-104.838095 0-19.504762-2.438095-36.571429-7.314286-53.638095-14.628571-46.32381-41.447619-75.580952-58.514285-87.771429-14.628571 14.628571-43.885714 43.885714-58.514286 87.771429-4.87619 17.066667-7.314286 34.133333-7.314286 53.638095 0 39.009524 12.190476 75.580952 31.695238 104.838095-24.380952-31.695238-39.009524-70.704762-39.009523-114.590476 0-29.257143 7.314286-56.07619 17.066666-80.457143-7.314286-7.314286-14.628571-19.504762-17.066666-29.257143-14.628571 26.819048-24.380952 58.514286-24.380953 92.647619 0 41.447619 14.628571 80.457143 36.571429 112.152381-41.447619-41.447619-97.52381-68.266667-160.914286-68.266666h-9.752381c7.314286 4.87619 12.190476 12.190476 14.628572 19.504762 63.390476 0 119.466667 26.819048 158.47619 68.266666-39.009524-31.695238-87.771429-51.2-141.409524-51.2-29.257143 0-58.514286 4.87619-85.333333 17.066667 26.819048 70.704762 95.085714 121.904762 175.542857 121.904762h14.628571c-9.752381 2.438095-21.942857 2.438095-34.133333 2.438095-51.2 0-97.52381-19.504762-131.657143-53.638095-7.314286 2.438095-14.628571 4.87619-21.942857 4.87619 34.133333 39.009524 85.333333 63.390476 141.409524 63.390476 53.638095 0 102.4-21.942857 136.533333-58.514285 34.133333 36.571429 82.895238 58.514286 136.533334 58.514285 56.07619 0 107.27619-24.380952 141.409523-63.390476-7.314286 0-14.628571-2.438095-21.942857-4.87619-26.819048 31.695238-73.142857 53.638095-121.904762 53.638095z" fill="#FFFFFF" p-id="14437"></path><path d="M855.771429 687.542857c-36.571429-12.190476-60.952381-31.695238-75.580953-43.885714-12.190476 12.190476-39.009524 31.695238-75.580952 43.885714-17.066667 4.87619-36.571429 7.314286-53.638095 7.314286h-146.285715c4.87619 7.314286 9.752381 12.190476 14.628572 19.504762H658.285714c46.32381 0 87.771429-17.066667 121.904762-43.885715 31.695238 26.819048 75.580952 43.885714 121.904762 43.885715h141.409524c4.87619-4.87619 9.752381-12.190476 14.628571-19.504762h-146.285714c-21.942857 0-39.009524-2.438095-56.07619-7.314286z" fill="#FFFFFF" p-id="14438"></path><path d="M997.180952 433.980952l24.380953-21.942857 26.819047 14.628572-14.628571-26.819048 24.380952-21.942857-31.695238 4.87619-12.190476-29.257142-7.314286 31.695238-29.257143 2.438095 26.819048 14.628571zM921.6 304.761905l9.752381 29.257143 9.752381-29.257143h31.695238l-26.819048-19.504762 9.752381-29.257143-24.380952 19.504762-24.380952-17.066667 9.752381 29.257143-24.380953 17.066667z" fill="#FBD116" p-id="14439"></path></svg>